<?xml version="1.0" standalone="no"?>
<!DOCTYPE svg PUBLIC "-//W3C//DTD SVG 20010904//EN"
 "http://www.w3.org/TR/2001/REC-SVG-20010904/DTD/svg10.dtd">
<svg version="1.0" xmlns="http://www.w3.org/2000/svg"
 width="500.000000pt" height="500.000000pt" viewBox="0 0 500.000000 500.000000"
 preserveAspectRatio="xMidYMid meet">

<g transform="translate(0.000000,500.000000) scale(0.100000,-0.100000)"
fill="#ffffff" stroke="none">
<path d="M2639 4847 c-21 -14 -36 -34 -39 -53 -4 -17 -17 -45 -31 -63 -21 -29
-24 -43 -26 -145 -1 -74 3 -127 12 -152 9 -28 10 -44 3 -58 -16 -29 -16 -155
-1 -203 10 -30 11 -53 4 -85 -29 -127 -32 -177 -14 -216 10 -20 16 -47 15 -59
-5 -38 18 -129 44 -180 23 -43 24 -51 14 -89 -7 -23 -9 -56 -5 -73 6 -27 4
-31 -22 -36 -15 -4 -36 -10 -45 -16 -28 -15 -40 -11 -36 13 2 14 15 29 33 37
16 8 24 16 18 18 -25 9 -68 -23 -88 -64 -20 -44 -42 -60 -57 -45 -6 6 1 21 17
38 20 21 25 35 21 54 -16 67 -18 101 -6 115 8 10 9 15 1 15 -25 0 -43 -48 -36
-100 6 -42 4 -50 -9 -50 -12 0 -14 5 -6 25 5 13 5 27 1 30 -13 7 -34 -50 -27
-73 14 -44 -20 -66 -65 -42 -24 14 -24 32 1 55 24 22 26 69 4 105 -14 24 -14
22 -8 -28 6 -49 4 -54 -12 -50 -14 2 -19 13 -20 38 -1 19 -8 49 -15 67 -11 28
-11 37 5 70 l18 38 -21 -19 c-11 -10 -23 -27 -26 -37 -5 -16 -9 -15 -34 14
-41 47 -81 120 -81 147 0 13 -8 33 -18 44 -26 30 -41 89 -44 176 -3 104 -20
121 -78 80 -35 -25 -45 -13 -31 37 23 82 2 217 -45 289 -23 35 -80 66 -119 66
-37 0 -46 11 -19 22 9 3 30 6 47 6 30 1 31 1 13 15 -42 32 -103 6 -131 -54
-15 -34 -17 -56 -12 -126 6 -81 41 -215 57 -215 4 0 24 -12 45 -26 28 -19 46
-24 67 -20 18 3 27 2 23 -4 -3 -6 -15 -10 -26 -10 -26 0 -35 -26 -17 -48 22
-26 59 -102 74 -152 41 -140 63 -202 63 -180 0 22 -20 89 -44 143 -5 12 -3 17
9 17 17 0 40 -45 31 -60 -3 -4 15 -34 39 -67 65 -87 69 -97 53 -135 -15 -35
-14 -44 9 -95 13 -30 58 -75 86 -86 9 -4 7 -11 -9 -25 -34 -30 -28 -37 13 -13
38 23 54 26 54 12 0 -5 -11 -12 -25 -15 -31 -8 -55 -53 -55 -106 0 -33 -4 -42
-22 -50 l-23 -9 23 0 c12 -1 30 8 39 19 10 11 22 20 27 20 5 0 1 -9 -8 -19
-26 -29 -45 -90 -45 -141 l1 -45 12 52 c15 61 42 107 60 100 6 -3 30 8 51 24
49 37 122 59 192 59 41 0 53 -3 53 -16 0 -8 5 -12 11 -9 6 4 8 13 5 20 -3 9 6
16 24 20 33 7 50 0 50 -21 0 -8 10 -14 24 -14 24 0 56 -23 56 -40 0 -6 -9 -6
-22 0 -35 15 -156 28 -223 25 -138 -7 -235 -81 -235 -180 0 -19 -5 -35 -11
-35 -8 0 -8 -5 1 -15 8 -10 10 -26 5 -47 -4 -18 -8 -63 -9 -99 0 -57 4 -73 27
-108 31 -46 76 -71 130 -71 43 0 50 8 28 31 -10 11 -18 30 -17 42 1 18 8 23
46 28 25 3 59 13 77 22 18 9 37 17 43 17 6 0 29 17 51 38 47 43 69 57 69 44 0
-22 -45 -63 -95 -87 -30 -14 -55 -28 -55 -31 0 -3 5 -2 11 1 5 4 32 9 60 12
53 5 62 -6 32 -39 -9 -10 -11 -18 -5 -18 13 0 60 56 79 95 10 19 33 39 67 55
39 19 52 31 53 50 1 14 0 19 -3 13 -7 -15 -30 -17 -39 -3 -9 15 6 59 19 54 8
-3 10 10 8 43 -1 27 -3 59 -2 72 0 14 -3 27 -7 30 -5 3 -17 24 -28 46 -16 33
-28 43 -67 55 -27 8 -48 21 -48 27 0 19 -45 44 -64 37 -24 -9 -19 14 7 28 27
15 120 28 146 21 11 -3 23 -15 27 -27 7 -20 7 -20 14 -2 5 16 9 14 27 -17 14
-24 31 -37 52 -42 35 -7 37 -12 16 -39 -8 -11 -15 -26 -15 -35 0 -8 12 2 28
21 17 23 44 42 72 51 44 16 45 16 10 14 -31 -2 -36 1 -45 29 -6 17 -16 38 -23
47 -12 14 -10 21 13 52 26 33 27 38 19 102 l-9 68 -3 -62 c-2 -50 -7 -65 -23
-73 -24 -14 -36 9 -20 39 18 33 13 46 -9 26 -12 -11 -20 -31 -20 -50 0 -37
-15 -55 -47 -55 -42 0 -52 19 -37 70 7 25 13 63 14 85 0 37 5 108 13 210 2 22
9 51 16 64 10 17 11 46 6 105 -10 124 -9 147 9 206 10 34 18 104 21 186 4 114
8 139 30 185 14 30 25 70 25 90 0 51 -17 137 -35 172 -8 17 -15 36 -15 43 0
44 -106 58 -161 21z m-5 -1059 c-3 -57 -5 -60 -13 -18 -6 28 2 60 14 60 1 0 1
-19 -1 -42z m23 -20 c-3 -8 -6 -5 -6 6 -1 11 2 17 5 13 3 -3 4 -12 1 -19z
m-57 -19 c0 -11 -4 -17 -10 -14 -5 3 -10 15 -10 26 0 11 5 17 10 14 6 -3 10
-15 10 -26z m40 -34 c0 -8 -4 -15 -10 -15 -5 0 -10 7 -10 15 0 8 5 15 10 15 6
0 10 -7 10 -15z m9 -39 c9 -10 9 -21 0 -42 l-12 -29 -7 31 c-4 17 -10 36 -14
42 -10 17 19 15 33 -2z m-480 -50 c6 -25 11 -60 10 -78 0 -25 -4 -19 -14 27
-7 33 -16 68 -20 78 -4 9 -3 17 3 17 5 0 15 -20 21 -44z m532 -20 c-7 -9 -7
-22 1 -43 6 -16 8 -39 4 -49 -7 -16 -10 -13 -22 20 -12 34 -12 44 4 88 15 43
17 46 20 23 2 -14 -1 -32 -7 -39z m-556 -28 c3 -7 -1 -4 -9 6 -9 11 -16 29
-15 40 1 17 2 16 9 -6 4 -14 11 -32 15 -40z m57 -31 c-9 -19 -11 -13 -10 33 0
53 1 54 10 22 8 -23 8 -39 0 -55z m-72 17 c12 -18 23 -41 25 -51 2 -10 10 -35
19 -55 20 -48 6 -57 -40 -26 -40 27 -69 92 -57 125 8 22 9 22 28 -7 11 -16 27
-32 35 -35 9 -4 6 3 -7 17 -11 13 -29 39 -38 58 -16 31 -16 33 -2 21 9 -7 26
-28 37 -47z m120 -15 c0 -10 -6 -19 -14 -19 -9 0 -12 8 -8 25 5 28 22 24 22
-6z m419 -33 c14 -26 8 -46 -14 -46 -20 0 -28 17 -21 46 8 30 19 31 35 0z
m-429 -56 c0 -12 -28 -25 -36 -17 -9 9 6 27 22 27 8 0 14 -5 14 -10z m610
-174 c-15 -15 -34 9 -26 31 7 17 8 17 22 -1 9 -13 11 -23 4 -30z m-628 -460
c10 -11 18 -23 18 -27 0 -4 16 -14 36 -21 25 -9 40 -23 50 -47 8 -19 12 -36
10 -39 -14 -13 -83 13 -112 42 -34 34 -60 106 -49 135 6 14 8 14 18 -4 6 -11
19 -29 29 -39z"/>
<path d="M3326 4559 c-46 -36 -68 -95 -82 -218 -8 -63 -21 -134 -30 -158 -14
-36 -15 -56 -7 -109 8 -55 7 -71 -8 -104 -10 -21 -15 -47 -13 -58 5 -18 -7
-31 -86 -95 -17 -14 -21 -26 -17 -50 3 -25 -2 -37 -29 -64 -46 -46 -45 -83 2
-143 l36 -45 -30 -25 c-16 -14 -37 -31 -48 -38 -18 -11 -17 -12 2 -2 21 9 22
8 17 -44 -3 -36 0 -66 10 -88 8 -18 18 -50 22 -70 5 -31 3 -38 -11 -38 -14 0
-15 -2 -3 -17 11 -13 11 -17 2 -20 -7 -3 -13 -14 -13 -26 1 -19 2 -20 13 -6
16 21 53 40 61 32 10 -10 7 -62 -5 -84 -7 -15 -7 -24 2 -35 7 -9 10 -35 7 -70
-5 -56 -5 -57 33 -83 43 -29 51 -46 17 -35 l-23 7 20 -23 c11 -13 32 -30 46
-39 l27 -17 -25 -11 c-20 -9 -25 -9 -30 3 -5 13 -8 12 -24 -2 -11 -9 -19 -22
-19 -28 0 -6 -5 -29 -11 -51 -11 -37 -12 -38 -23 -17 -11 20 -11 19 -12 -16 0
-20 -3 -49 -7 -64 -5 -17 -3 -28 3 -28 5 0 10 6 10 13 0 16 42 57 58 57 16 0
15 -33 -2 -75 -16 -39 -5 -47 25 -19 37 33 52 -7 19 -49 -24 -30 -25 -58 -4
-98 8 -17 13 -37 10 -45 -7 -19 -36 -18 -36 1 0 8 -5 15 -11 15 -7 0 -9 -11
-6 -27 3 -15 -2 -41 -11 -59 -14 -30 -14 -35 2 -59 14 -21 15 -29 5 -41 -9
-11 -15 -12 -26 -3 -10 9 -18 8 -31 -5 -21 -18 -32 -20 -32 -6 0 6 -7 21 -15
34 -15 22 -18 23 -53 10 -20 -7 -55 -13 -77 -14 -22 0 -50 -7 -63 -15 -17 -13
-26 -14 -44 -4 -18 10 -24 8 -35 -7 -7 -10 -11 -26 -7 -36 8 -25 -8 -22 -36 7
-28 29 -38 31 -55 8 -7 -9 -23 -17 -36 -18 -13 -1 -43 -6 -66 -10 -32 -6 -43
-4 -43 5 0 9 -5 8 -18 -3 -39 -35 -45 26 -7 67 24 26 24 27 8 64 -42 91 -97
151 -153 166 -22 6 -21 5 5 -10 34 -19 105 -84 105 -97 0 -8 -69 40 -82 58 -4
5 -8 6 -8 2 0 -4 -9 -3 -19 3 -13 7 -22 7 -26 0 -10 -16 -45 -12 -45 5 0 8 4
15 8 15 4 0 8 9 8 20 0 11 -6 20 -13 20 -7 0 -13 -5 -13 -10 0 -6 -12 -23 -27
-38 -20 -20 -35 -26 -66 -25 -53 3 -85 26 -109 81 -24 54 -40 72 -64 72 -9 0
-31 15 -49 34 -20 21 -37 31 -44 27 -20 -13 -63 0 -68 20 -4 15 -8 16 -24 6
-16 -10 -25 -5 -64 33 -38 37 -45 50 -45 83 0 52 13 73 60 97 21 11 42 25 45
31 12 18 -89 -37 -110 -61 -15 -16 -20 -36 -20 -75 l0 -54 -22 21 c-17 16 -23
33 -24 67 0 41 -1 43 -10 21 -6 -13 -7 -41 -4 -61 4 -22 2 -40 -4 -44 -7 -3
-11 2 -11 14 0 11 -9 31 -20 43 -11 13 -31 36 -45 51 -14 16 -30 51 -36 78
-12 55 -46 102 -91 125 -20 10 -80 19 -169 25 -131 10 -140 9 -189 -12 -66
-29 -112 -80 -108 -122 3 -29 6 -32 38 -32 43 0 60 -10 60 -36 0 -14 7 -19 28
-19 31 0 62 -26 62 -52 0 -20 17 -33 54 -42 17 -4 45 -21 63 -37 40 -35 80
-37 117 -8 41 32 89 6 54 -29 -7 -7 -21 -12 -32 -12 -15 0 -17 -3 -8 -8 10 -7
9 -15 -4 -41 -12 -25 -14 -38 -6 -54 10 -20 11 -18 11 15 1 27 8 42 28 57 34
28 70 36 87 22 10 -9 15 -8 19 3 5 13 10 13 39 -1 38 -19 48 -30 48 -56 0 -15
-5 -17 -30 -12 -35 8 -51 0 -43 -21 4 -11 14 -13 34 -9 27 6 29 4 29 -23 0
-16 9 -41 20 -55 25 -31 26 -64 3 -90 -18 -19 -17 -19 5 -6 33 20 37 52 12 97
-17 30 -20 45 -13 72 12 45 40 62 58 35 34 -49 44 -59 51 -53 4 5 0 16 -8 25
-28 33 -33 46 -12 34 56 -32 82 -77 86 -146 3 -43 5 -45 26 -40 13 3 29 2 35
-4 7 -5 23 -11 37 -13 32 -4 50 -40 50 -104 0 -43 -4 -54 -30 -79 -41 -39 -57
-98 -35 -131 20 -30 30 -32 13 -1 -16 29 -11 65 14 100 28 39 56 33 74 -18 11
-32 12 -49 3 -82 -13 -50 -6 -87 25 -128 13 -16 32 -51 43 -76 12 -26 27 -50
34 -55 11 -6 12 -5 2 7 -7 9 -19 35 -27 58 -9 23 -26 56 -39 74 -34 45 -40 72
-26 114 l12 37 18 -23 c11 -13 19 -35 19 -50 0 -52 31 -130 70 -180 22 -28 40
-52 40 -55 0 -10 -40 -12 -50 -2 -9 8 -11 7 -8 -4 2 -11 -11 -17 -52 -24 -70
-11 -142 8 -220 59 -50 32 -61 35 -125 34 -76 0 -66 -17 12 -18 39 -1 67 -16
123 -70 29 -28 126 -63 185 -68 39 -4 83 1 124 11 36 9 68 13 72 9 4 -5 -3
-42 -17 -83 -33 -101 -31 -152 6 -215 36 -61 38 -55 5 17 -14 29 -25 62 -25
74 0 22 38 144 49 156 4 4 48 -32 99 -81 108 -104 108 -105 57 -231 -52 -129
-45 -238 18 -271 l22 -12 -21 24 c-12 13 -26 33 -32 44 -16 32 -6 105 24 174
26 59 29 62 42 45 14 -18 14 -18 8 -1 -3 10 -3 36 0 58 l7 40 23 -22 c20 -19
24 -33 26 -108 l3 -86 9 73 c10 86 32 95 29 11 l-2 -54 12 38 c12 35 14 36 29
21 15 -15 14 -21 -12 -73 -27 -53 -29 -64 -25 -146 6 -139 21 -248 39 -283 9
-18 13 -32 9 -32 -9 0 40 -34 80 -56 41 -22 32 -8 -14 21 -27 18 -46 40 -60
72 -11 25 -18 48 -15 50 2 3 16 -3 30 -12 22 -15 24 -20 14 -34 -12 -14 -11
-15 5 -2 16 13 21 11 48 -15 19 -19 31 -42 33 -65 1 -19 8 -44 14 -56 7 -12
12 -37 13 -55 0 -18 3 -27 6 -19 3 8 0 51 -7 97 -11 67 -19 89 -42 115 l-29
32 25 26 c37 39 49 78 41 144 -5 45 -2 69 12 103 10 24 21 44 24 44 3 0 15
-13 27 -30 20 -27 22 -37 16 -110 -6 -73 -5 -83 20 -132 14 -29 35 -82 45
-118 11 -36 20 -60 20 -53 2 23 -32 138 -50 172 l-19 36 64 65 c35 36 73 83
84 105 l21 40 -6 -72 c-7 -88 6 -127 48 -142 18 -6 27 -6 24 -1 -4 6 -13 10
-21 10 -8 0 -22 15 -31 34 -14 30 -14 42 -3 93 21 96 23 137 6 176 -14 35 -14
39 9 80 14 24 31 62 40 86 8 23 24 54 35 68 14 19 20 41 20 79 0 60 15 71 29
22 5 -18 10 -27 10 -20 2 24 20 11 31 -24 12 -35 17 -116 11 -184 -8 -89 -3
-102 49 -151 28 -26 57 -62 65 -80 8 -19 14 -26 15 -17 0 29 -18 66 -53 105
-18 21 -37 46 -40 56 -4 10 3 60 15 110 19 80 20 100 11 166 -6 42 -10 77 -9
78 7 8 61 -77 67 -106 6 -35 7 -35 8 -6 1 31 -12 56 -62 118 -27 34 -28 37
-13 66 23 44 30 45 69 6 19 -19 42 -35 51 -35 10 0 16 -9 16 -24 0 -13 12 -41
27 -62 17 -26 29 -59 33 -99 l7 -60 2 58 c1 44 -5 69 -25 108 -15 27 -24 52
-21 55 3 3 22 1 42 -6 73 -24 185 10 245 75 l35 39 -45 -37 c-53 -42 -123 -62
-187 -53 -85 11 -91 34 -33 117 29 41 40 67 40 93 0 24 10 50 31 80 34 47 37
79 23 193 -6 51 -5 52 23 59 15 3 38 13 50 20 21 13 28 11 80 -24 53 -36 93
-56 93 -48 0 2 -19 16 -42 31 -24 15 -53 39 -64 54 -22 26 -22 26 -2 51 29 36
49 90 43 112 -6 16 -2 17 37 12 24 -3 61 -1 83 4 38 10 39 10 9 11 -90 3 -144
37 -144 91 0 17 -7 41 -15 53 -21 32 -12 96 19 146 14 22 26 47 26 55 0 22 69
66 103 66 15 0 45 -9 67 -20 61 -31 61 -23 0 15 -30 19 -67 35 -83 35 -38 0
-122 -46 -135 -74 -9 -18 -11 -19 -11 -3 -1 17 -4 16 -32 -7 -37 -32 -57 -32
-106 -4 -69 40 -69 48 3 133 52 61 56 69 51 103 -4 20 -16 44 -27 54 -11 9
-20 27 -21 40 l-1 23 -7 -25 -7 -24 -17 24 c-9 13 -17 35 -17 48 0 25 58 85
75 78 6 -2 10 20 10 57 l0 60 60 32 c33 18 62 39 66 46 15 31 39 96 48 134 6
22 17 49 24 59 13 18 15 16 35 -26 29 -58 28 -79 -4 -109 -14 -13 -35 -37 -47
-54 -12 -16 5 -4 36 29 31 32 57 65 57 73 0 8 -12 35 -27 61 -19 32 -23 47
-15 50 25 8 73 55 89 86 8 17 23 40 33 51 22 25 60 134 60 173 0 41 -22 56
-80 53 -82 -3 -190 -79 -241 -167 -24 -43 -29 -62 -27 -105 3 -51 2 -52 -29
-61 -26 -7 -33 -15 -39 -43 -7 -37 -53 -84 -106 -108 -28 -12 -35 -31 -19 -56
5 -8 3 -24 -5 -40 -8 -14 -14 -35 -14 -47 0 -11 -9 -29 -20 -39 -25 -23 -47
-7 -56 40 -7 41 16 89 54 109 31 18 22 22 -11 5 -56 -29 -73 -94 -40 -150 16
-28 16 -29 -2 -43 -11 -8 -17 -18 -13 -22 4 -4 14 -1 23 6 9 7 18 11 20 8 10
-10 -27 -68 -54 -84 -15 -9 -34 -26 -41 -38 -9 -14 -1 -11 24 12 49 43 71 41
24 -3 -42 -39 -41 -47 0 -14 l27 21 7 -39 c13 -73 -8 -90 -102 -81 -42 4 -54
11 -98 56 -28 29 -46 55 -40 58 5 3 15 1 20 -4 16 -16 67 14 68 40 0 4 -15 2
-32 -3 -46 -13 -46 -13 -68 24 -11 17 -20 28 -20 23 0 -6 -14 9 -31 32 -36 49
-33 59 41 121 73 62 90 93 90 169 0 35 -5 72 -10 82 -8 14 -6 30 5 56 8 20 15
57 15 81 0 31 12 73 40 134 22 49 40 93 40 98 0 4 14 27 30 50 17 23 35 52 41
64 5 12 16 33 24 47 8 14 15 37 15 51 0 14 11 41 25 60 41 56 47 80 49 172 1
85 0 89 -27 113 -38 33 -131 34 -171 3z m-240 -929 c8 0 14 9 14 21 0 18 2 19
15 9 14 -12 13 -15 -5 -35 -11 -12 -20 -30 -20 -41 0 -32 -11 -35 -31 -10 -22
28 -24 73 -6 113 l12 28 3 -43 c2 -28 8 -42 18 -42z m96 -12 c-7 -7 -12 -8
-12 -2 0 6 3 14 7 17 3 4 9 5 12 2 2 -3 -1 -11 -7 -17z m58 -55 c0 -63 -18
-108 -61 -149 l-30 -29 10 28 c6 16 11 46 11 68 0 21 5 39 10 39 6 0 10 -5 10
-12 0 -6 3 -9 6 -5 4 3 1 20 -5 38 -9 27 -8 35 12 59 12 15 25 25 30 23 4 -2
7 -29 7 -60z m-100 -45 c0 -7 -9 -24 -21 -38 l-20 -25 18 38 c18 39 23 45 23
25z m15 -79 c-7 -22 -65 -119 -71 -119 -2 0 -4 13 -4 29 0 18 13 45 33 69 35
45 52 53 42 21z m356 -122 c-13 -12 -20 -15 -16 -7 14 26 28 41 33 35 3 -3 -5
-16 -17 -28z m16 -44 c-20 -20 -39 -34 -43 -30 -4 3 10 23 30 43 20 20 40 34
43 30 4 -4 -9 -23 -30 -43z m67 -56 c-3 -6 -28 -29 -55 -50 -29 -22 -49 -45
-49 -57 0 -25 -21 -70 -33 -70 -5 0 -6 8 -2 18 4 9 9 44 12 77 6 70 21 91 69
100 19 3 38 13 41 22 5 13 8 13 14 -5 5 -12 6 -28 3 -35z m-141 -56 c2 -10 1
-25 -4 -32 -6 -10 -9 -4 -9 19 0 36 5 42 13 13z m161 -157 c3 -8 2 -12 -4 -9
-6 3 -10 10 -10 16 0 14 7 11 14 -7z m-2004 -369 c11 -13 8 -15 -14 -15 -25 0
-33 10 -19 23 10 11 19 8 33 -8z m2019 -44 c10 -6 10 -13 3 -28 -19 -35 -38
-46 -61 -33 -20 10 -20 13 -6 40 15 30 38 37 64 21z m-1768 -69 c-6 -2 -8 -9
-4 -15 4 -7 -1 -6 -11 2 -12 10 -13 16 -6 21 8 5 7 9 -4 13 -9 4 -16 12 -16
18 0 7 12 2 26 -12 14 -13 20 -25 15 -27z m111 22 c22 -14 5 -26 -28 -21 -36
6 -64 22 -64 37 0 8 75 -6 92 -16z m-32 -45 c0 -14 -17 -10 -23 5 -4 10 -1 13
9 9 7 -3 14 -9 14 -14z m1766 -7 c-9 -9 -37 8 -31 18 5 8 11 7 21 -1 8 -6 12
-14 10 -17z m-140 -40 c11 -7 27 -42 19 -42 -16 0 -55 26 -55 37 0 14 19 17
36 5z m136 -36 c14 -21 8 -71 -13 -105 -28 -46 -41 -29 -43 56 l-2 70 25 -5
c14 -3 29 -10 33 -16z m-84 -128 c13 -34 5 -48 -29 -48 -14 0 -15 5 -6 40 6
22 14 40 17 40 3 0 11 -14 18 -32z m-63 -360 c-38 -57 -42 -40 -9 38 27 62 29
64 32 34 2 -22 -5 -45 -23 -72z m-698 1 c2 -8 -2 -21 -7 -29 -8 -12 -11 -13
-19 -1 -11 17 -2 53 13 48 6 -2 12 -10 13 -18z m624 -88 c3 -27 -56 -169 -72
-170 -15 -2 -39 27 -45 54 -5 27 -2 31 25 42 30 11 57 55 46 74 -3 5 -1 28 6
51 l11 42 13 -31 c7 -17 15 -45 16 -62z m-211 -1 c0 -20 -68 -85 -78 -75 -4 4
0 10 9 15 8 5 24 27 34 49 18 41 35 46 35 11z m-796 5 c-4 -8 -8 -15 -10 -15
-2 0 -4 7 -4 15 0 8 4 15 10 15 5 0 7 -7 4 -15z m253 -52 c15 -45 17 -123 3
-123 -10 0 -16 19 -24 90 -3 25 -9 56 -12 70 -10 39 17 9 33 -37z m-62 2 c6
-29 6 -29 -9 -11 -9 11 -16 29 -16 40 0 28 17 8 25 -29z m-144 -7 c8 -15 6
-18 -16 -18 -30 0 -43 24 -25 46 14 16 16 14 41 -28z m-251 22 c0 -5 -4 -10
-10 -10 -5 0 -10 5 -10 10 0 6 5 10 10 10 6 0 10 -4 10 -10z m107 -47 c-3 -10
-5 -4 -5 12 0 17 2 24 5 18 2 -7 2 -21 0 -30z m667 -52 c-8 -8 -64 52 -64 68
0 10 14 0 34 -24 19 -22 32 -42 30 -44z m81 68 c12 -19 -3 -22 -27 -5 l-22 16
21 0 c12 0 25 -5 28 -11z m148 -79 c-14 -25 -27 -46 -27 -47 -1 -1 -15 14 -30
34 l-29 36 39 32 38 32 17 -21 c17 -20 17 -23 -8 -66z m-113 65 c0 -8 -2 -15
-4 -15 -2 0 -6 7 -10 15 -3 8 -1 15 4 15 6 0 10 -7 10 -15z m-640 -15 c25 0
30 -5 35 -34 4 -19 2 -43 -4 -55 -19 -35 -47 -26 -77 24 -27 47 -26 82 2 71 9
-3 29 -6 44 -6z m136 -17 c16 -21 18 -37 4 -28 -13 8 -33 45 -24 45 4 0 13 -8
20 -17z m243 -105 c-12 -21 -14 -21 -17 -5 -2 10 2 33 10 50 l13 32 3 -27 c2
-15 -2 -37 -9 -50z m-585 20 c9 -12 14 -24 12 -26 -6 -6 -56 29 -56 39 0 17
29 9 44 -13z m694 -46 c-25 -42 -46 -85 -53 -106 -4 -15 -8 -16 -21 -6 -13 12
-12 16 9 39 30 31 57 83 57 108 0 13 3 14 12 5 10 -10 9 -18 -4 -40z m140 20
c8 -12 10 -22 4 -22 -5 0 -17 12 -27 26 -11 17 -13 25 -4 22 7 -2 19 -14 27
-26z m-738 -49 c0 -17 -10 -16 -32 4 -26 23 -22 35 7 21 14 -6 25 -17 25 -25z
m240 -3 c0 -20 -1 -20 -30 -5 -16 9 -30 18 -30 20 0 3 14 5 30 5 23 0 30 -4
30 -20z m37 -17 c-21 -22 -32 -11 -17 17 9 16 15 19 23 11 8 -8 7 -16 -6 -28z
m362 -82 c1 -48 -30 -111 -55 -111 -17 0 -17 -3 -3 79 6 36 19 80 27 96 l16
30 7 -25 c4 -14 7 -45 8 -69z m-474 45 c40 -17 41 -18 19 -51 -12 -18 -14 -35
-9 -62 7 -37 6 -37 -13 -20 -12 11 -22 37 -26 68 -4 27 -9 56 -12 64 -8 19 -2
19 41 1z m163 -43 c-10 -12 -13 -12 -20 1 -13 23 0 40 18 25 11 -9 12 -15 2
-26z m186 -8 c21 -31 22 -125 2 -125 -19 0 -66 64 -66 90 0 29 18 60 34 60 8
0 21 -11 30 -25z m-313 -38 c-8 -8 -11 -7 -11 4 0 20 13 34 18 19 3 -7 -1 -17
-7 -23z m64 -54 c-9 -26 -19 -55 -22 -63 -4 -12 -9 -10 -24 9 -25 31 -24 43 7
92 23 37 27 40 41 26 14 -14 14 -20 -2 -64z m189 -29 c4 -10 -1 -22 -11 -29
-22 -16 -22 -16 -16 18 6 30 18 35 27 11z m146 -34 c0 -5 -4 -10 -10 -10 -5 0
-10 5 -10 10 0 6 5 10 10 10 6 0 10 -4 10 -10z m-75 -46 l27 -36 -28 -31 c-16
-18 -37 -40 -46 -49 -9 -10 -19 -26 -23 -38 -8 -25 -22 -26 -29 -2 -3 9 -17
29 -31 44 l-26 28 20 39 c22 42 66 80 92 81 9 0 29 -16 44 -36z m-208 -16 c-3
-8 -6 -5 -6 6 -1 11 2 17 5 13 3 -3 4 -12 1 -19z m-108 -82 c-33 -44 -49 -56
-49 -36 0 14 22 62 44 94 19 29 20 29 29 8 8 -17 3 -30 -24 -66z m88 7 c-16
-16 -17 -15 -17 17 0 32 1 33 17 17 16 -16 16 -18 0 -34z m285 -34 c1 -46 -30
-103 -93 -169 l-52 -54 5 60 c7 73 27 115 81 171 45 47 57 45 59 -8z m37 3 c0
-24 -1 -25 -9 -7 -12 28 -12 47 0 40 6 -3 10 -18 9 -33z m-369 0 c0 -17 -25
-55 -62 -94 -10 -10 -18 -28 -18 -40 0 -12 -3 -19 -6 -15 -13 13 9 88 37 127
31 43 49 51 49 22z m94 -29 c-10 -40 -14 -41 -14 -5 0 18 5 32 10 32 6 0 8
-11 4 -27z m-38 -86 c-18 -31 -18 -31 2 -14 19 17 19 17 26 -22 8 -54 -2 -94
-33 -132 -32 -38 -51 -35 -80 12 -18 30 -19 77 -2 89 4 3 15 27 24 53 9 26 26
57 39 67 23 18 23 18 33 -2 6 -15 4 -29 -9 -51z"/>
<path d="M2947 3097 c-2 -12 -8 -30 -12 -39 -4 -10 -3 -18 1 -18 12 0 33 69
24 75 -4 3 -10 -5 -13 -18z"/>
<path d="M3036 2892 c1 -31 -2 -66 -6 -77 -7 -19 -9 -18 -19 8 -14 35 -21 34
-21 -2 0 -21 6 -32 20 -36 24 -7 20 -36 -9 -69 -15 -17 -16 -16 -23 30 -10 78
-9 152 2 134 8 -13 10 -12 10 3 0 23 -26 33 -46 17 -11 -10 -18 -10 -26 -2
-17 17 -25 15 -31 -7 -3 -13 -1 -18 9 -14 10 4 12 -7 8 -49 -3 -29 -5 -67 -5
-84 1 -17 -3 -43 -9 -58 -10 -28 -30 -35 -30 -11 0 8 -13 28 -30 45 -16 17
-30 37 -30 45 0 17 16 20 25 5 11 -18 22 -11 39 24 23 49 20 63 -8 35 -14 -13
-38 -34 -55 -47 -20 -15 -36 -41 -47 -76 -16 -52 -16 -54 5 -75 23 -23 26 -16
11 25 -12 30 -4 84 11 84 5 0 9 -15 9 -34 0 -19 5 -38 10 -41 6 -3 10 -15 10
-26 0 -11 7 -33 15 -49 10 -19 11 -31 4 -35 -6 -4 -1 -19 15 -40 14 -18 22
-35 19 -39 -4 -3 3 -6 14 -6 11 0 26 7 33 15 16 19 59 19 80 0 29 -27 88 9
104 62 6 18 4 22 -8 17 -9 -3 -16 -12 -16 -18 0 -19 -28 -52 -36 -43 -5 4 -2
12 5 16 11 7 11 15 3 41 -9 26 -8 38 4 63 11 20 15 46 12 79 -5 47 -4 48 13
32 26 -23 24 -9 -3 29 -19 26 -22 43 -21 104 1 40 -2 75 -6 77 -4 3 -7 -21 -5
-52z m-78 -68 c3 -34 -6 -78 -26 -134 -3 -8 -6 -22 -6 -32 -1 -9 -4 -20 -8
-24 -15 -14 -8 -43 17 -72 31 -37 32 -53 3 -49 -14 3 -25 14 -30 32 -4 16 -14
33 -23 37 -13 8 -13 12 4 36 22 30 55 191 48 228 -3 16 0 23 7 21 6 -2 12 -21
14 -43z"/>
<path d="M2098 2829 c-9 -21 -15 -39 -14 -39 10 0 43 59 38 67 -4 6 -15 -6
-24 -28z"/>
<path d="M2435 2749 c-4 -6 -5 -12 -2 -15 2 -3 7 2 10 11 7 17 1 20 -8 4z"/>
<path d="M2003 2724 c-18 -8 -33 -15 -33 -17 0 -1 18 -2 40 -3 32 0 40 3 40
18 0 21 -4 21 -47 2z"/>
<path d="M2401 2673 c-14 -9 -41 -23 -60 -30 l-36 -14 35 6 c19 3 44 7 54 9
11 1 22 8 24 14 2 7 8 10 13 6 5 -3 9 2 9 10 0 20 -10 20 -39 -1z"/>
<path d="M2508 2659 c-25 -14 -22 -26 7 -31 15 -3 30 1 40 12 25 27 -9 41 -47
19z"/>
<path d="M2750 2585 c0 -24 65 -105 84 -105 6 0 -4 14 -21 31 -18 16 -33 35
-33 40 0 6 -7 17 -15 25 -8 9 -15 13 -15 9z"/>
<path d="M2345 2480 c-4 -6 2 -13 12 -16 10 -3 36 -12 57 -20 49 -17 59 -11
17 10 -54 28 -80 36 -86 26z"/>
<path d="M3326 1425 c-9 -26 -7 -32 5 -12 6 10 9 21 6 23 -2 3 -7 -2 -11 -11z"/>
<path d="M2210 410 c0 -3 7 -13 14 -23 21 -28 21 -199 0 -232 -9 -14 -12 -25
-8 -26 51 -3 196 1 204 6 6 3 10 15 10 27 0 16 -4 18 -17 12 -10 -4 -41 -9
-69 -12 l-52 -4 -4 39 c-7 51 -2 56 47 51 40 -5 42 -4 42 22 0 26 -2 27 -36
19 -53 -12 -52 -13 -49 33 5 64 39 76 121 43 13 -5 17 -2 17 13 0 36 -23 44
-124 41 -53 -2 -96 -5 -96 -9z"/>
<path d="M1810 393 c0 -3 11 -18 24 -34 14 -16 37 -68 52 -117 41 -127 54
-138 80 -72 9 22 20 40 24 40 4 0 15 -18 24 -41 9 -23 22 -39 29 -36 6 2 28
48 47 103 41 114 56 144 72 144 24 0 -4 14 -35 17 -33 3 -33 2 -50 -54 -9 -32
-20 -74 -25 -93 -11 -47 -25 -44 -36 8 -7 35 -6 50 7 72 19 32 14 40 -24 40
-53 0 -60 -7 -42 -46 14 -28 14 -40 4 -74 -12 -42 -30 -46 -32 -7 0 12 -10 51
-22 87 -22 64 -22 65 -59 66 -21 1 -38 -1 -38 -3z"/>
<path d="M2577 380 c12 -26 15 -182 4 -193 -18 -18 -13 -31 16 -44 40 -19 43
-17 43 36 0 28 4 52 9 55 14 9 71 -62 65 -79 -5 -12 3 -15 40 -15 l46 0 -67
64 -68 64 38 38 c20 21 37 42 37 46 0 3 9 10 20 13 32 10 23 25 -15 25 -20 0
-35 -5 -35 -12 0 -14 -48 -78 -59 -78 -18 0 -20 32 -6 61 17 32 17 31 -43 33
-25 1 -31 -2 -25 -14z"/>
<path d="M3275 386 c-72 -26 -101 -72 -90 -144 8 -53 58 -111 97 -113 65 -3
110 13 133 48 24 36 21 109 -4 144 -12 16 -21 35 -21 43 0 14 -13 19 -70 30
-8 2 -28 -2 -45 -8z m92 -65 c19 -34 21 -46 14 -86 -15 -78 -59 -102 -110 -60
-36 31 -48 79 -31 129 13 41 33 55 75 56 25 0 34 -7 52 -39z"/>
<path d="M3506 393 c-4 -4 3 -14 14 -23 13 -10 35 -57 58 -125 42 -124 61
-141 81 -75 6 22 16 40 21 40 6 0 17 -18 26 -40 26 -65 37 -55 83 80 18 52 41
104 52 116 26 28 24 32 -18 31 -34 -2 -37 -5 -53 -53 -10 -28 -21 -70 -25 -92
-8 -52 -21 -53 -34 -4 -15 50 -14 55 9 85 17 22 18 26 4 31 -20 8 -58 8 -78 0
-14 -5 -14 -8 1 -30 11 -17 14 -37 10 -65 -7 -55 -24 -71 -33 -33 -3 16 -15
59 -26 97 -19 65 -21 67 -52 67 -18 0 -36 -3 -40 -7z"/>
<path d="M2888 379 c-15 -8 -18 -25 -18 -97 0 -57 -4 -92 -12 -101 -11 -10 -8
-16 12 -31 38 -30 51 -25 48 18 -1 20 -1 56 0 80 l2 43 43 -43 c23 -24 53 -58
67 -75 14 -17 35 -34 47 -38 21 -6 21 -3 25 107 2 62 6 120 8 128 4 11 -5 16
-32 18 -36 3 -38 2 -33 -25 2 -15 7 -55 10 -87 l6 -60 -21 19 c-12 11 -44 50
-72 87 -27 37 -53 68 -56 68 -4 0 -15 -5 -24 -11z"/>
</g>
</svg>
