<?xml version="1.0" standalone="no"?>
<!DOCTYPE svg PUBLIC "-//W3C//DTD SVG 20010904//EN"
 "http://www.w3.org/TR/2001/REC-SVG-20010904/DTD/svg10.dtd">
<svg version="1.0" xmlns="http://www.w3.org/2000/svg"
 width="500.000000pt" height="500.000000pt" viewBox="0 0 500.000000 500.000000"
 preserveAspectRatio="xMidYMid meet">
<metadata>
Created by potrace 1.16, written by Peter Selinger 2001-2019
</metadata>
<g transform="translate(0.000000,500.000000) scale(0.100000,-0.100000)"
fill="#e3e3d0" stroke="none">
<path d="M1403 4954 c-764 -398 -1278 -1144 -1384 -2009 -17 -143 -11 -543 10
-691 80 -543 325 -1044 703 -1440 422 -441 994 -723 1608 -794 162 -19 562 -8
719 19 698 121 1295 490 1698 1051 116 162 243 386 243 431 0 25 -23 65 -50
86 -24 20 -87 15 -138 -11 -90 -45 -278 -115 -396 -146 -482 -129 -948 -115
-1421 41 -625 208 -1157 693 -1434 1308 -152 339 -225 745 -201 1125 11 162
11 169 42 326 36 191 85 346 164 523 48 107 51 124 28 168 -13 27 -65 59 -93
59 -6 0 -50 -21 -98 -46z m-152 -431 c-109 -358 -138 -797 -76 -1160 95 -557
349 -1049 744 -1443 408 -407 907 -655 1501 -747 154 -23 523 -23 695 1 132
18 327 62 448 100 42 13 77 21 77 18 0 -25 -187 -251 -309 -373 -199 -200
-375 -328 -620 -451 -458 -231 -1010 -308 -1527 -213 -628 116 -1211 501
-1561 1030 -370 560 -495 1204 -358 1858 92 445 355 917 680 1226 136 128 326
277 333 260 2 -4 -10 -52 -27 -106z"/>
</g>
</svg>
