<?xml version="1.0" standalone="no"?>
<!DOCTYPE svg PUBLIC "-//W3C//DTD SVG 20010904//EN"
 "http://www.w3.org/TR/2001/REC-SVG-20010904/DTD/svg10.dtd">
<svg version="1.0" xmlns="http://www.w3.org/2000/svg"
 width="564.000000pt" height="355.000000pt" viewBox="0 0 564.000000 355.000000"
 preserveAspectRatio="xMidYMid meet">

<g transform="translate(0.000000,355.000000) scale(0.100000,-0.100000)"
fill="#ffffff" stroke="none">
<path d="M2685 3434 c-372 -66 -716 -323 -879 -654 -23 -47 -45 -91 -49 -97
-5 -7 -26 -6 -74 4 -85 18 -272 12 -358 -11 -142 -39 -334 -159 -420 -262 -89
-108 -158 -252 -189 -394 -4 -20 -20 -31 -76 -53 -243 -98 -440 -332 -496
-587 -18 -86 -18 -278 1 -358 45 -192 183 -392 344 -501 138 -94 255 -131 436
-138 116 -4 140 -2 223 20 l93 25 52 -35 c73 -50 199 -108 292 -134 66 -19
105 -23 225 -23 161 -1 210 9 363 71 59 24 94 33 102 27 7 -5 51 -40 97 -77
271 -222 638 -266 967 -115 88 40 139 77 242 174 48 46 93 84 99 84 6 0 36
-13 68 -29 276 -139 640 -160 934 -55 304 109 523 309 670 609 80 165 108 279
115 465 13 363 -94 646 -337 890 -243 244 -563 370 -905 357 -71 -3 -136 -7
-143 -9 -16 -4 -16 -4 -81 129 -27 56 -69 130 -92 165 -59 87 -189 220 -284
291 -86 65 -260 153 -365 186 -160 50 -405 65 -575 35z m485 -153 c113 -30
289 -116 387 -190 188 -142 335 -350 387 -546 8 -32 20 -63 25 -68 7 -7 32 -7
78 2 162 30 363 24 518 -15 126 -32 304 -131 428 -237 342 -294 443 -822 237
-1242 -151 -307 -435 -524 -764 -581 -138 -24 -352 -15 -469 20 -121 36 -200
71 -280 122 -37 24 -71 44 -76 44 -4 0 -28 -30 -54 -68 -97 -142 -285 -266
-466 -306 -107 -24 -275 -22 -376 4 -155 41 -310 138 -400 250 -22 27 -46 49
-52 50 -7 0 -36 -15 -65 -33 -127 -80 -240 -110 -413 -111 -106 0 -145 4 -210
22 -107 31 -192 73 -271 134 l-67 51 -86 -28 c-114 -36 -266 -45 -373 -21
-202 45 -383 187 -472 371 -47 97 -66 183 -66 302 0 193 60 343 190 474 87 87
163 135 279 174 85 29 111 51 111 93 0 37 39 181 62 226 34 69 126 182 191
235 75 62 178 113 275 136 109 26 281 17 381 -19 40 -15 77 -24 81 -19 4 4 15
33 25 63 74 232 258 460 474 591 86 52 251 116 348 134 117 22 372 14 483 -14z"/>
</g>
</svg>
