<?xml version="1.0" standalone="no"?>
<!DOCTYPE svg PUBLIC "-//W3C//DTD SVG 20010904//EN"
 "http://www.w3.org/TR/2001/REC-SVG-20010904/DTD/svg10.dtd">
<svg version="1.0" xmlns="http://www.w3.org/2000/svg"
 width="506.000000pt" height="493.000000pt" viewBox="0 0 506.000000 493.000000"
 preserveAspectRatio="xMidYMid meet">

<g transform="translate(0.000000,493.000000) scale(0.100000,-0.100000)"
fill="#f39f18" stroke="none">
<path d="M3078 4518 c-96 -236 -243 -451 -376 -548 -163 -120 -329 -117 -509
9 -117 82 -277 271 -398 472 -66 108 -87 82 -73 -91 14 -162 4 -375 -22 -479
-26 -109 -81 -211 -138 -262 -63 -55 -159 -84 -248 -74 -143 15 -295 76 -537
214 -133 75 -177 93 -177 68 0 -18 27 -53 99 -132 140 -153 273 -381 312 -536
31 -121 24 -240 -19 -329 -43 -90 -98 -150 -201 -219 -112 -74 -264 -134 -435
-171 -144 -31 -180 -43 -192 -61 -12 -20 24 -37 94 -44 269 -27 518 -121 640
-242 83 -82 107 -134 107 -238 0 -100 -27 -182 -95 -291 -46 -74 -247 -317
-311 -376 -32 -30 -37 -55 -14 -65 9 -3 57 15 108 40 186 93 345 132 505 125
78 -3 108 -9 154 -30 223 -103 292 -388 227 -946 -7 -56 -9 -105 -6 -108 17
-18 54 9 76 53 92 192 311 436 453 506 147 71 258 75 381 14 159 -79 294 -260
423 -565 35 -83 52 -112 65 -112 22 0 26 18 39 195 14 185 25 261 55 374 51
192 152 329 294 399 l75 37 135 0 c123 0 144 -3 226 -29 49 -16 162 -67 252
-113 90 -46 170 -83 178 -83 27 0 16 33 -46 140 -159 278 -227 489 -217 678 8
149 67 253 183 327 117 75 245 104 475 108 94 2 173 6 176 10 16 15 -11 47
-54 64 -75 29 -262 125 -322 165 -200 134 -322 286 -365 453 -20 78 -19 231 1
314 37 152 165 367 321 544 45 49 56 87 26 87 -9 0 -57 -22 -107 -48 -230
-122 -398 -174 -571 -174 -86 -1 -124 4 -175 20 -176 57 -297 206 -355 437
-29 113 -46 322 -38 463 l6 102 -32 0 c-29 0 -34 -5 -53 -52z m22 -191 c0 -97
22 -271 46 -365 60 -239 185 -384 389 -453 25 -9 86 -14 165 -14 142 0 212 15
418 89 67 24 122 39 122 34 0 -5 -32 -57 -72 -115 -135 -203 -182 -339 -182
-528 0 -103 4 -132 27 -200 67 -203 213 -361 467 -508 52 -30 96 -59 98 -66 2
-7 -12 -11 -40 -11 -25 0 -87 -7 -139 -16 -232 -40 -384 -133 -449 -277 -92
-203 -58 -441 111 -779 27 -54 49 -102 49 -108 0 -6 -13 -5 -32 4 -18 8 -82
37 -143 64 -154 69 -233 87 -380 87 -102 -1 -129 -4 -180 -24 -161 -63 -278
-202 -345 -407 -33 -103 -65 -255 -75 -357 -4 -37 -11 -70 -16 -72 -4 -3 -33
43 -63 102 -135 263 -324 440 -504 473 -191 34 -369 -70 -605 -355 -55 -66
-102 -121 -106 -123 -3 -1 -6 109 -6 245 0 210 -3 259 -19 318 -67 252 -227
385 -466 385 -73 0 -197 -25 -337 -69 -35 -10 -65 -16 -67 -13 -2 4 23 39 56
77 167 196 260 404 245 550 -21 205 -239 377 -585 461 -82 20 -94 30 -50 39
48 9 154 44 223 72 170 71 316 195 379 323 105 217 66 423 -143 744 -39 60
-71 113 -71 117 0 9 27 -2 115 -48 334 -172 617 -143 750 77 67 111 94 251 96
498 0 78 5 145 10 148 5 3 30 -25 56 -62 215 -302 411 -444 611 -444 202 0
426 190 598 507 16 29 32 53 37 53 4 0 7 -24 7 -53z"/>
<path d="M2305 3565 c-285 -53 -529 -184 -722 -389 -345 -365 -429 -901 -209
-1347 148 -299 430 -544 741 -642 169 -53 230 -62 410 -62 184 0 300 19 449
72 288 104 543 314 688 568 257 450 185 1023 -178 1414 -161 174 -388 307
-628 368 -86 21 -128 26 -286 29 -134 2 -207 -1 -265 -11z m460 -45 c251 -46
494 -177 670 -362 398 -418 446 -1014 118 -1476 -26 -37 -86 -105 -133 -152
-235 -234 -547 -360 -888 -360 -350 0 -637 116 -877 355 -107 107 -179 209
-245 348 -74 155 -102 270 -107 453 -7 211 22 353 109 528 178 359 547 619
963 675 83 12 306 6 390 -9z"/>
</g>
</svg>
